<?xml version="1.0" standalone="no"?>
<!DOCTYPE svg PUBLIC "-//W3C//DTD SVG 20010904//EN"
 "http://www.w3.org/TR/2001/REC-SVG-20010904/DTD/svg10.dtd">
<svg version="1.0" xmlns="http://www.w3.org/2000/svg"
 width="1926.000000pt" height="1926.000000pt" viewBox="0 0 1926.000000 1926.000000"
 preserveAspectRatio="xMidYMid meet">
<metadata>
Created by potrace 1.11, written by Peter Selinger 2001-2013
</metadata>
<g transform="translate(0.000000,1926.000000) scale(0.100000,-0.100000)"
fill="#000000" stroke="none">
<path d="M10436 18422 c-3 -5 -23 -14 -45 -22 -23 -7 -41 -17 -41 -21 0 -18
-113 -38 -243 -43 -87 -3 -144 -9 -153 -17 -8 -6 -17 -9 -21 -6 -3 4 -12 2
-20 -4 -7 -6 -13 -8 -13 -3 0 5 -4 5 -8 -1 -11 -15 -166 -90 -182 -87 -3 0
-16 -15 -30 -33 -26 -35 -77 -62 -118 -63 -13 -1 -37 -15 -53 -31 -16 -17 -29
-27 -29 -23 0 4 -6 -4 -13 -18 -9 -17 -11 -32 -4 -47 14 -33 1 -66 -34 -87
-17 -10 -52 -38 -76 -62 -38 -38 -94 -65 -140 -67 -4 0 -13 -12 -20 -28 -11
-27 -79 -69 -111 -69 -7 0 -32 -20 -55 -44 -28 -30 -56 -48 -84 -55 -44 -12
-73 -34 -73 -55 0 -15 -45 -41 -95 -55 -23 -6 -50 -20 -60 -31 -11 -11 -31
-31 -44 -44 -21 -21 -89 -44 -114 -38 -4 1 -6 -1 -5 -5 5 -28 -68 -88 -117
-96 -11 -1 -26 -6 -32 -10 -7 -5 -18 -5 -25 -1 -7 4 -8 3 -4 -4 4 -7 2 -12 -3
-12 -6 0 -11 -6 -11 -13 0 -23 -43 -54 -83 -61 -25 -5 -57 -24 -98 -61 -38
-34 -71 -55 -85 -55 -16 0 -43 -19 -79 -55 -31 -30 -59 -55 -64 -55 -5 0 -12
-13 -16 -28 -5 -25 -13 -1108 -17 -2597 -2 -468 -1 -514 16 -559 21 -58 43
-79 110 -103 49 -18 96 -62 96 -89 0 -9 4 -13 8 -10 14 8 77 -12 98 -32 11 -9
27 -29 37 -44 10 -16 25 -28 34 -28 26 0 101 -48 108 -69 7 -24 41 -46 82 -55
32 -7 49 -22 68 -59 6 -12 29 -28 52 -37 45 -16 103 -59 103 -75 0 -6 29 -25
65 -43 36 -17 65 -36 65 -40 0 -21 41 -54 72 -59 34 -5 84 -44 93 -74 3 -9 17
-20 31 -23 40 -10 104 -54 115 -80 7 -15 27 -28 53 -37 53 -16 75 -31 97 -65
10 -15 25 -29 33 -31 9 -2 23 -4 31 -6 23 -5 55 -35 55 -51 0 -21 -49 -64 -81
-71 -34 -8 -61 6 -88 44 -11 15 -43 38 -70 50 -30 13 -63 37 -82 61 -20 25
-46 44 -68 50 -45 12 -52 17 -79 57 -15 21 -34 34 -56 38 -30 6 -106 66 -106
85 0 4 -19 15 -42 25 -80 33 -89 39 -105 72 -8 19 -18 32 -20 29 -11 -11 -91
27 -103 49 -7 14 -17 25 -21 25 -4 0 -14 6 -21 14 -8 7 -35 22 -60 34 -30 13
-57 35 -75 61 -23 33 -34 40 -61 41 -33 0 -57 18 -96 72 -11 15 -33 29 -50 32
-31 6 -96 58 -96 77 0 5 -28 23 -63 39 -45 22 -66 39 -75 60 -8 17 -21 30 -32
30 -36 0 -89 31 -109 64 -16 26 -35 39 -71 51 -34 11 -60 29 -84 58 -25 30
-46 44 -78 52 -55 13 -69 41 -68 132 6 353 4 1985 -2 2007 -4 16 -18 44 -30
63 -21 30 -27 33 -67 31 -43 -2 -49 -5 -74 -41 -19 -27 -88 -38 -126 -19 -17
8 -31 18 -31 22 0 9 -67 24 -95 22 -54 -5 -63 -8 -58 -15 7 -11 -48 -6 -64 6
-7 5 -10 13 -7 18 3 5 1 9 -4 9 -5 0 -10 144 -10 338 -1 185 -4 355 -6 377 -3
30 3 56 25 103 27 56 38 67 62 63 4 0 7 3 7 8 0 5 16 12 35 15 19 4 35 12 35
18 0 6 3 9 6 6 3 -4 26 14 50 38 25 24 53 44 62 44 9 0 26 7 36 15 10 8 22 12
26 10 4 -2 13 7 20 20 7 14 19 25 27 25 7 0 13 4 13 9 0 5 12 12 26 15 45 12
114 48 108 57 -3 5 0 9 5 9 6 0 11 6 11 13 0 15 67 47 102 50 12 1 38 17 57
37 32 32 113 80 136 80 6 0 19 13 30 30 22 32 46 47 88 54 16 3 34 10 41 15 7
6 16 7 20 3 4 -4 6 -2 4 3 -3 12 34 52 72 76 24 15 84 34 86 27 1 -6 34 31 34
39 0 11 60 47 60 36 0 -4 7 1 15 11 8 11 15 17 15 13 0 -9 59 21 77 39 7 7 13
17 13 23 0 5 16 15 35 22 19 7 35 15 35 19 0 3 12 6 26 6 15 1 37 15 53 33 15
17 33 31 39 31 7 0 12 5 12 11 0 5 5 7 10 4 6 -3 10 -2 10 2 0 5 22 17 49 27
27 9 52 24 55 32 3 9 11 12 17 8 7 -4 9 -3 5 4 -8 14 29 40 77 53 20 5 37 14
37 20 0 6 4 8 10 4 5 -3 16 6 26 19 15 24 123 86 149 86 7 0 19 20 26 45 7 25
17 45 22 45 4 0 5 5 1 11 -3 6 -1 14 5 18 6 4 13 22 16 40 2 18 2 31 -1 28 -3
-3 -26 1 -52 8 -26 6 -54 9 -62 5 -41 -21 -67 -31 -80 -34 -8 -1 -24 -7 -35
-12 -11 -6 -27 -10 -35 -9 -17 0 -23 -4 -80 -57 -22 -21 -46 -39 -53 -39 -22
-2 -32 -5 -60 -17 -16 -7 -30 -12 -32 -12 -2 0 -22 -18 -46 -39 -23 -22 -45
-39 -48 -38 -10 2 -81 -35 -81 -43 0 -12 -38 -51 -52 -54 -7 -2 -26 -8 -41
-14 -16 -7 -33 -12 -38 -12 -5 0 -9 -5 -9 -11 0 -5 -4 -8 -9 -5 -5 3 -14 -1
-21 -9 -7 -8 -17 -12 -24 -8 -6 3 -8 3 -5 -1 14 -15 -39 -57 -91 -71 -18 -5
-53 -24 -46 -24 13 -1 -30 -41 -44 -41 -5 0 -10 -5 -10 -12 0 -6 -3 -8 -6 -5
-4 4 -19 0 -33 -7 -14 -8 -42 -21 -61 -30 -19 -8 -43 -23 -52 -33 -20 -21 -46
-44 -50 -42 -12 4 -58 -16 -62 -28 -3 -8 -11 -11 -17 -7 -7 4 -9 3 -6 -3 3 -5
-3 -16 -14 -24 -12 -8 -30 -22 -41 -31 -20 -17 -33 -22 -50 -19 -5 0 -8 -4 -8
-10 0 -5 -3 -8 -8 -5 -11 6 -80 -27 -79 -39 1 -5 -21 -25 -49 -43 -27 -18 -57
-38 -67 -45 -10 -6 -23 -11 -29 -9 -5 1 -7 -2 -4 -7 8 -12 -68 -63 -99 -65
-14 0 -25 -4 -25 -8 0 -5 -5 -8 -10 -8 -6 0 -31 -20 -56 -45 -25 -25 -49 -43
-54 -40 -4 3 -10 1 -12 -4 -1 -6 -16 -12 -31 -15 -16 -3 -38 -15 -48 -28 -28
-31 -70 -58 -93 -58 -11 0 -41 -22 -67 -50 -25 -27 -49 -47 -53 -43 -3 3 -6 0
-6 -7 0 -7 -3 -10 -6 -7 -4 3 -14 2 -23 -2 -16 -9 -88 -23 -128 -25 -13 0 -23
-4 -23 -8 0 -5 -3 -7 -7 -7 -48 8 -76 -22 -83 -86 -3 -30 -2 -56 2 -57 5 -2
10 -13 12 -25 3 -12 10 -31 16 -43 6 -11 8 -25 5 -30 -3 -6 -3 -10 2 -10 4 0
9 -16 10 -35 1 -19 -1 -35 -5 -35 -4 0 -7 -118 -6 -263 0 -144 -3 -274 -7
-289 -4 -15 -3 -30 2 -34 5 -3 7 -10 4 -15 -4 -5 0 -16 8 -23 8 -8 14 -23 13
-33 -2 -29 -54 -120 -71 -127 -9 -3 -13 -10 -10 -16 3 -5 -1 -10 -9 -10 -9 0
-16 -5 -16 -11 0 -5 -5 -7 -12 -3 -6 4 -8 3 -5 -3 9 -15 -45 -74 -70 -76 -13
-1 -23 -5 -23 -10 0 -4 -4 -5 -10 -2 -5 3 -10 2 -10 -4 0 -5 -8 -12 -19 -16
-10 -3 -37 -23 -60 -44 -42 -39 -70 -54 -124 -65 -15 -4 -35 -15 -45 -26 -9
-11 -20 -20 -25 -20 -5 0 -20 -9 -34 -20 -14 -11 -34 -20 -44 -20 -11 0 -19
-5 -19 -11 0 -6 -6 -9 -12 -7 -7 3 -26 -10 -43 -27 -36 -39 -93 -75 -117 -75
-10 0 -18 -5 -18 -11 0 -6 -8 -9 -17 -7 -10 2 -28 -6 -39 -17 -40 -38 -62 -53
-68 -48 -3 4 -6 1 -6 -5 0 -7 -6 -12 -14 -12 -21 0 -67 -26 -59 -33 3 -4 -1
-7 -11 -7 -11 0 -14 -4 -10 -12 5 -8 2 -9 -10 -5 -9 4 -15 3 -12 -2 7 -10
-101 -64 -113 -56 -5 2 -28 -15 -52 -38 -38 -38 -81 -65 -85 -55 -1 2 -11 -5
-21 -15 -11 -9 -23 -14 -26 -10 -4 3 -7 1 -7 -6 0 -7 -4 -9 -10 -6 -5 3 -10 0
-10 -8 0 -18 -64 -68 -90 -70 -11 -1 -20 -5 -20 -10 0 -5 -5 -7 -12 -5 -6 2
-28 -12 -48 -31 -22 -23 -58 -43 -95 -56 -33 -10 -63 -23 -66 -28 -3 -5 -10
-8 -15 -7 -22 5 -45 -106 -44 -210 1 -260 2 -446 0 -455 -1 -5 -1 -14 0 -20 3
-14 10 -871 15 -1860 2 -467 6 -923 9 -1011 3 -89 2 -165 -2 -168 -10 -11 -11
-105 -1 -112 5 -3 7 -9 4 -14 -6 -9 34 -36 48 -32 4 1 7 -3 7 -10 0 -6 3 -8 6
-5 8 8 83 -31 102 -53 12 -13 13 -13 6 0 -4 8 5 3 21 -12 15 -16 36 -28 46
-28 9 0 19 -4 21 -9 2 -6 17 -12 33 -15 17 -2 30 -5 30 -6 0 -1 13 -4 30 -6
16 -3 33 -11 37 -17 4 -7 8 -8 8 -3 0 5 7 3 15 -4 8 -7 12 -16 9 -21 -3 -5 0
-9 5 -9 6 0 11 -5 11 -10 0 -6 10 -21 21 -33 12 -12 18 -15 14 -7 -4 8 6 0 24
-18 28 -30 52 -42 89 -44 6 -1 12 -5 12 -10 0 -5 5 -6 10 -3 6 3 10 1 10 -5 0
-6 5 -8 10 -5 6 3 10 1 10 -4 0 -6 6 -11 13 -11 17 0 79 -69 71 -81 -3 -5 2
-6 10 -3 9 3 16 1 16 -5 0 -6 11 -11 24 -11 14 0 28 -4 31 -10 3 -5 15 -10 26
-10 11 0 18 -4 15 -8 -3 -5 4 -14 14 -22 10 -8 16 -18 13 -23 -3 -6 -1 -7 4
-4 6 4 19 -5 29 -18 10 -14 24 -25 31 -25 7 0 13 -4 13 -10 0 -5 7 -10 15 -10
8 0 15 -5 15 -11 0 -5 4 -8 9 -5 5 4 11 2 13 -4 2 -6 14 -12 28 -15 14 -3 26
-9 28 -15 2 -5 12 -10 23 -10 10 0 19 -5 19 -11 0 -5 4 -8 9 -4 5 3 16 -2 24
-10 9 -8 20 -15 26 -15 6 0 11 -4 11 -8 0 -16 35 -48 68 -63 17 -7 32 -17 32
-21 0 -5 6 -7 13 -6 6 2 11 -3 9 -10 -1 -6 4 -11 10 -10 7 2 11 -4 10 -12 -2
-8 0 -12 4 -8 10 11 35 -12 27 -25 -3 -6 -1 -7 5 -3 7 4 12 2 12 -4 0 -6 4 -9
9 -6 5 3 14 -1 21 -9 7 -8 18 -15 25 -15 7 0 18 -7 25 -15 6 -8 17 -13 23 -12
7 1 11 -4 9 -11 -1 -8 2 -11 7 -8 5 4 14 -2 20 -11 6 -10 11 -15 11 -11 0 3
17 2 38 -4 24 -6 55 -29 89 -64 29 -30 57 -54 63 -54 5 0 10 -5 10 -10 0 -6 3
-9 8 -8 16 3 62 -15 62 -25 0 -6 3 -7 6 -4 4 4 16 -3 26 -16 11 -12 25 -22 31
-22 7 -1 11 -6 10 -13 -2 -6 3 -9 11 -6 7 3 20 -2 29 -10 9 -9 18 -16 21 -16
3 0 16 -10 29 -23 36 -34 66 -57 75 -57 5 0 17 -8 28 -18 10 -10 22 -19 27
-20 17 -4 47 -28 47 -37 0 -6 25 -24 57 -40 91 -48 93 -49 93 -58 0 -4 5 -5
10 -2 6 3 13 -1 16 -9 3 -9 10 -14 14 -11 5 3 16 -5 24 -17 9 -12 16 -19 16
-14 0 5 8 -1 19 -12 10 -12 21 -19 25 -15 3 3 6 1 6 -5 0 -6 9 -14 20 -17 11
-4 18 -10 15 -15 -5 -8 54 -37 68 -32 4 1 7 -2 7 -8 0 -5 6 -10 13 -10 6 0 28
-14 47 -30 19 -17 43 -33 53 -36 9 -3 17 -9 17 -13 0 -5 22 -18 49 -29 26 -12
61 -37 76 -57 16 -19 35 -35 42 -35 19 0 64 -30 86 -57 10 -13 25 -23 33 -23
8 0 14 -5 14 -11 0 -5 4 -8 9 -5 5 4 11 3 13 -2 1 -4 28 -20 59 -35 30 -15 61
-38 69 -52 7 -13 17 -22 22 -19 4 3 8 0 8 -5 0 -6 10 -11 23 -11 32 -1 75 -42
80 -78 3 -17 9 -37 13 -44 11 -16 15 -98 6 -98 -4 0 -7 -204 -6 -453 1 -314
-2 -456 -10 -466 -8 -11 -8 -13 2 -7 10 6 12 -24 13 -141 4 -1397 9 -2306 13
-2336 3 -21 9 -572 13 -1225 8 -1404 8 -1548 1 -1584 -3 -15 -1 -25 3 -22 5 2
8 -34 8 -81 0 -47 -3 -85 -7 -85 -4 0 -6 -28 -4 -62 13 -267 15 -386 16 -783
1 -352 4 -452 14 -458 7 -5 10 -12 7 -18 -4 -5 -2 -9 3 -9 5 0 12 -9 15 -21 3
-12 10 -18 16 -15 11 7 134 -51 139 -65 2 -5 10 -9 18 -9 8 0 14 -4 14 -9 0
-5 9 -13 20 -16 11 -4 18 -10 15 -15 -3 -4 3 -7 12 -5 10 1 22 0 27 -3 10 -6
70 -13 124 -14 17 -1 32 -4 32 -7 0 -4 16 -15 35 -25 19 -10 32 -23 28 -29 -4
-6 0 -8 10 -4 10 3 17 2 17 -3 0 -6 9 -10 20 -10 11 0 20 -5 20 -12 0 -6 3 -9
6 -5 3 3 24 -1 46 -9 22 -8 53 -14 68 -14 31 0 90 -27 90 -41 0 -5 0 -11 0
-14 0 -13 36 -41 48 -37 6 2 12 0 12 -5 0 -5 15 -10 33 -10 17 0 43 -1 57 -2
31 -2 73 3 125 17 22 6 83 11 135 12 52 1 102 2 110 2 8 1 21 5 28 11 6 5 12
6 12 2 0 -4 7 -2 15 5 8 7 15 9 15 4 0 -5 5 -2 10 6 5 8 13 15 17 16 4 0 26 8
48 18 34 16 70 18 248 19 114 0 207 4 207 8 0 6 43 18 83 22 9 1 17 5 17 9 0
9 225 2 241 -8 7 -4 9 -3 6 3 -4 5 6 16 21 24 15 8 29 17 32 20 22 26 65 33
225 35 179 2 210 5 244 24 12 6 26 8 31 5 6 -4 13 1 16 10 4 10 13 13 25 10
11 -4 19 -2 19 3 0 6 22 10 50 9 27 0 48 -3 46 -6 -4 -5 21 -5 104 1 8 1 21 7
28 15 7 7 22 13 33 13 11 0 17 5 14 10 -3 6 -2 10 2 10 16 0 35 44 42 97 4 29
4 53 1 53 -8 0 -5 162 3 197 15 60 19 203 23 881 2 405 5 742 5 747 0 6 0 60
0 120 -2 165 15 1660 18 1660 4 0 11 288 12 483 1 111 5 202 8 202 3 0 5 30 3
66 -2 36 1 64 5 61 4 -3 8 114 7 259 -1 145 2 264 5 264 3 0 6 116 7 258 1
141 2 275 2 297 0 22 1 96 0 165 -1 332 6 1356 10 1364 3 4 4 108 3 230 -2
245 -2 226 0 281 1 22 -2 75 -6 117 l-7 77 43 47 c68 73 81 83 116 96 18 7 33
16 33 22 0 5 3 6 7 3 3 -4 15 7 25 24 11 19 38 39 71 54 31 13 56 32 62 46 6
13 33 34 60 48 43 22 104 75 105 91 0 3 24 16 54 30 30 14 62 37 72 53 11 15
43 39 73 55 30 15 59 36 65 47 18 32 31 42 62 49 16 4 53 30 83 58 30 28 70
57 88 64 18 8 50 32 69 54 20 22 43 40 50 40 8 0 14 5 14 11 0 5 4 8 8 5 11
-7 52 22 52 36 0 10 37 47 49 49 40 5 90 35 91 55 0 11 85 74 99 74 5 0 32 23
59 50 30 30 62 53 81 56 17 4 31 10 31 14 0 20 53 69 82 75 17 4 52 29 81 57
28 28 69 58 92 68 22 10 53 34 68 53 17 23 42 41 66 48 26 8 45 22 60 48 17
27 36 42 72 54 27 10 53 26 59 36 10 19 104 91 119 91 4 0 18 13 31 30 13 16
46 41 75 56 35 16 59 36 70 58 14 26 30 37 70 50 34 11 56 24 65 41 14 26 70
67 108 79 12 4 22 11 22 15 0 20 73 81 108 91 35 9 42 16 61 61 11 29 21 58
21 65 0 8 4 14 8 14 15 0 35 83 32 130 -5 90 -8 385 -4 392 11 18 17 744 22
2783 1 151 -1 174 -11 172 -5 -1 -14 7 -20 17 -21 35 -67 76 -102 91 -20 8
-44 29 -56 49 -15 25 -32 39 -58 46 -20 5 -43 19 -51 31 -35 50 -48 62 -71 66
-13 1 -44 24 -69 51 -25 27 -66 60 -92 75 -26 15 -55 41 -65 57 -10 17 -35 37
-59 47 -27 11 -50 31 -65 55 -13 20 -26 35 -29 33 -9 -6 -90 33 -90 43 0 17
-41 56 -78 72 -37 18 -74 47 -89 73 -4 8 -29 26 -55 41 -25 15 -58 42 -72 61
-15 19 -42 39 -63 45 -47 15 -73 37 -73 62 0 13 -15 25 -47 39 -27 12 -64 39
-84 61 -35 40 -37 41 -105 42 -38 1 -72 -3 -76 -8 -9 -13 -157 -16 -185 -3
-23 10 -26 20 -25 67 2 72 11 270 14 303 2 20 1 37 -2 37 -5 0 -4 234 3 380 3
70 -5 134 -20 170 -3 8 -7 17 -7 20 -2 12 -60 70 -70 70 -6 0 -16 8 -23 19 -6
10 -27 21 -47 25 -34 6 -76 45 -76 70 0 11 -31 27 -75 40 -11 3 -31 22 -45 42
-13 21 -39 43 -56 50 -32 13 -94 69 -94 83 0 5 -27 21 -61 37 -39 19 -66 39
-75 57 -8 15 -19 27 -25 27 -6 0 -7 5 -4 10 3 6 -5 10 -19 10 -28 0 -82 41
-91 70 -4 11 -18 23 -33 26 -38 10 -82 42 -92 70 -5 13 -25 30 -46 39 -20 8
-63 42 -96 75 -33 33 -66 60 -73 60 -12 0 -65 58 -65 71 0 4 -14 11 -32 14
-38 9 -68 26 -68 39 0 14 -58 66 -75 66 -18 0 -85 58 -85 74 0 6 -23 22 -51
35 -29 14 -60 38 -72 56 -12 19 -44 44 -73 58 -35 17 -56 35 -65 56 -14 31
-35 45 -81 55 -15 4 -35 20 -47 40 -20 32 -38 45 -69 52 -19 4 -51 33 -69 64
-8 15 -37 37 -65 50 -27 13 -56 32 -63 44 -8 11 -27 22 -42 24 -15 2 -33 8
-39 13 -7 6 -15 6 -18 1z m-345 -824 c21 -11 43 -33 49 -49 9 -22 53 -52 80
-54 20 -2 50 -30 58 -55 6 -16 16 -30 21 -30 6 0 13 0 16 0 20 1 69 -37 89
-69 16 -25 34 -40 53 -44 28 -6 73 -37 73 -52 0 -13 50 -52 97 -76 24 -12 43
-28 43 -36 0 -7 5 -13 10 -13 6 0 10 -6 10 -14 0 -7 15 -19 33 -26 63 -24 80
-35 89 -62 9 -26 39 -44 65 -40 14 3 84 -67 78 -78 -2 -4 8 -13 23 -20 77 -36
112 -59 112 -76 0 -12 55 -54 72 -54 27 0 73 -46 77 -76 2 -16 3 -510 3 -1099
-1 -1327 -1 -1625 1 -1697 4 -109 -5 -122 -101 -147 -23 -7 -40 -16 -37 -21 4
-6 1 -10 -5 -10 -6 0 -9 -4 -6 -9 3 -4 -2 -16 -12 -24 -19 -17 -88 -49 -97
-45 -10 5 -55 -43 -55 -58 0 -17 -51 -44 -85 -44 -14 0 -25 -5 -25 -12 0 -6
-3 -8 -7 -5 -4 4 -12 -6 -19 -22 -12 -29 -67 -65 -109 -73 -11 -1 -32 -22 -47
-45 -28 -44 -59 -60 -121 -62 -10 -1 -16 -4 -14 -8 11 -20 -31 -69 -69 -79
-70 -20 -84 -26 -84 -36 0 -5 -5 -6 -12 -2 -7 4 -8 3 -4 -5 12 -18 -48 -67
-99 -80 -37 -9 -47 -17 -59 -45 -16 -38 -36 -52 -81 -59 -17 -2 -38 -7 -47
-11 -36 -16 -57 40 -37 99 10 30 17 1081 23 3370 2 893 0 1056 -12 1087 -8 22
-11 45 -6 55 4 10 6 21 6 26 -3 14 30 7 69 -15z"/>
</g>
</svg>
